<?xml version="1.0" encoding="utf-8"?>
<!-- Svg Vector Icons : http://www.onlinewebfonts.com/icon -->
<!DOCTYPE svg PUBLIC "-//W3C//DTD SVG 1.1//EN" "http://www.w3.org/Graphics/SVG/1.1/DTD/svg11.dtd">
<svg version="1.1" xmlns="http://www.w3.org/2000/svg" xmlns:xlink="http://www.w3.org/1999/xlink" x="0px" y="0px" viewBox="0 0 1000 1000" enable-background="new 0 0 1000 1000" xml:space="preserve">
<metadata> Svg Vector Icons : http://www.onlinewebfonts.com/icon </metadata>
<g><path d="M867.5,10h-245C554.8,10,500,64.8,500,132.5v245c0,67.7,54.8,122.5,122.5,122.5h245c67.7,0,122.5-54.8,122.5-122.5v-245C990,64.8,935.1,10,867.5,10z M867.5,316.3c0,33.8-27.4,61.3-61.3,61.3H683.8c-33.8,0-61.3-27.4-61.3-61.3V193.8c0-33.8,27.4-61.3,61.3-61.3h122.5c33.8,0,61.3,27.4,61.3,61.3V316.3z M806.3,561.3c-33.8,0-61.3,27.4-61.3,61.3c0,0.4,0.2,0.9,0.2,1.3H745v182.5c0,33.8-27.4,61.3-61.3,61.3H219l159.4-159.4V744c0,33.8,27.4,61.3,61.3,61.3c33.8,0,61.3-27.4,61.3-61.3V560.2c0-33.8-27.4-61.3-61.3-61.3H255.9c-33.8,0-61.3,27.4-61.3,61.3c0,33.8,27.4,61.3,61.3,61.3h35.9L132.5,780.7V316.3c0-33.8,27.4-61.3,61.3-61.3h183.8c33.8,0,61.3-27.4,61.3-61.3s-27.4-61.3-61.3-61.3h-245C64.8,132.5,10,187.3,10,255v612.5C10,935.2,64.8,990,132.5,990H745c67.6,0,122.5-54.8,122.5-122.5V623.8h-0.2c0-0.4,0.2-0.9,0.2-1.3C867.5,588.7,840.1,561.3,806.3,561.3z"/></g>
</svg>